<svg width="500" height="500" viewBox="0 0 500 500" fill="none" xmlns="http://www.w3.org/2000/svg">
<path d="M423.567 136.367H197.539L221.944 448.356H399.167L423.567 136.367Z" fill="#47A7DD"/>
<path d="M197.539 136.367L221.944 448.356H271.883L251.467 136.367H197.539Z" fill="#3D98C1"/>
<path d="M297.822 382.556H31.4667V413.639C31.4681 422.846 35.1263 431.675 41.6366 438.186C48.1469 444.696 56.9764 448.354 66.1833 448.356H263.111C272.318 448.354 281.148 444.696 287.658 438.186C294.168 431.675 297.826 422.846 297.828 413.639V382.556H297.822Z" fill="#FFCA6C"/>
<path d="M79.2167 413.639V382.556H31.4667V413.639C31.4681 422.846 35.1263 431.675 41.6366 438.186C48.1469 444.696 56.9764 448.354 66.1833 448.356H113.939C104.731 448.356 95.9001 444.698 89.3885 438.188C82.877 431.677 79.2181 422.847 79.2167 413.639Z" fill="#E2AE5A"/>
<path d="M31.4667 333.745H297.828V302.667C297.826 293.46 294.168 284.63 287.658 278.12C281.148 271.61 272.318 267.952 263.111 267.95H66.1833C56.9764 267.952 48.1469 271.61 41.6366 278.12C35.1263 284.63 31.4681 293.46 31.4667 302.667V333.745Z" fill="#FFCA6C"/>
<path d="M79.2167 302.667V333.745H31.4667V302.667C31.4681 293.46 35.1263 284.63 41.6366 278.12C48.1469 271.61 56.9764 267.952 66.1833 267.95H113.939C104.731 267.95 95.9001 271.608 89.3885 278.118C82.877 284.629 79.2181 293.459 79.2167 302.667Z" fill="#E2AE5A"/>
<path d="M258.561 333.745H70.7278C64.2543 333.745 58.0459 336.316 53.4685 340.894C48.891 345.471 46.3195 351.679 46.3195 358.153C46.3195 364.626 48.891 370.835 53.4685 375.412C58.0459 379.99 64.2543 382.561 70.7278 382.561H258.561C265.034 382.561 271.243 379.99 275.82 375.413C280.398 370.837 282.971 364.629 282.972 358.156C282.969 351.682 280.396 345.475 275.819 340.898C271.242 336.32 265.034 333.747 258.561 333.745Z" fill="#DD852C"/>
<path d="M95.1389 358.156C95.1389 351.681 97.7108 345.472 102.289 340.894C106.867 336.316 113.076 333.745 119.55 333.745H70.7278C64.2543 333.745 58.0459 336.316 53.4685 340.894C48.891 345.471 46.3195 351.679 46.3195 358.153C46.3195 364.626 48.891 370.835 53.4685 375.412C58.0459 379.99 64.2543 382.561 70.7278 382.561H119.544C113.073 382.558 106.867 379.986 102.29 375.41C97.7141 370.833 95.1419 364.627 95.1389 358.156Z" fill="#C16D21"/>
<path d="M429.722 85.4278H191.383L177.906 136.367H443.2L429.722 85.4278ZM404.489 51.4667H216.617L212.394 85.4278H408.711L404.489 51.4667Z" fill="#F2F2F2"/>
<path d="M251.661 51.4667H216.617L212.394 85.4278H191.383L177.906 136.367H250.594L268.639 85.4278L251.661 84.3611" fill="#E6E6E6"/>
<path d="M305.289 382.556C305.289 378.439 301.944 375.094 297.822 375.094H285.533C288.639 370.178 290.433 364.372 290.433 358.15C290.433 351.928 288.633 346.117 285.533 341.206H297.822C301.944 341.206 305.289 337.861 305.289 333.739V302.661C305.289 279.4 286.367 260.478 263.106 260.478H66.1833C42.9222 260.489 24 279.411 24 302.667V333.744C24 337.867 27.3444 341.211 31.4667 341.211H43.7556C40.6556 346.122 38.8611 351.933 38.8611 358.156C38.8611 364.378 40.6611 370.183 43.7556 375.1H31.4667C30.4867 375.099 29.516 375.29 28.6101 375.664C27.7043 376.038 26.8811 376.587 26.1876 377.28C25.4941 377.972 24.944 378.795 24.5686 379.7C24.1932 380.605 24 381.576 24 382.556V413.639C24 436.9 42.9222 455.822 66.1833 455.822H197.694C199.675 455.822 201.574 455.036 202.974 453.635C204.374 452.235 205.161 450.336 205.161 448.356C205.161 446.375 204.374 444.476 202.974 443.076C201.574 441.676 199.675 440.889 197.694 440.889H66.1833C58.9584 440.882 52.0316 438.008 46.9228 432.899C41.814 427.791 38.9407 420.864 38.9333 413.639V390.022H290.361V413.639C290.354 420.864 287.48 427.791 282.372 432.899C277.263 438.008 270.336 440.882 263.111 440.889H222.583C220.603 440.889 218.704 441.676 217.304 443.076C215.903 444.476 215.117 446.375 215.117 448.356C215.117 450.336 215.903 452.235 217.304 453.635C218.704 455.036 220.603 455.822 222.583 455.822H263.111C286.372 455.822 305.294 436.9 305.294 413.639V382.556H305.289ZM70.7278 375.094C61.3889 375.094 53.7889 367.494 53.7889 358.15C53.7889 348.806 61.3889 341.206 70.7278 341.206H96.1667C98.147 341.206 100.046 340.419 101.446 339.019C102.847 337.618 103.633 335.719 103.633 333.739C103.633 331.759 102.847 329.859 101.446 328.459C100.046 327.059 98.147 326.272 96.1667 326.272H38.9278V302.661C38.9351 295.436 41.8085 288.509 46.9172 283.401C52.026 278.292 58.9529 275.418 66.1778 275.411H263.106C270.33 275.418 277.257 278.292 282.366 283.401C287.475 288.509 290.348 295.436 290.356 302.661V326.272H119.544C117.564 326.272 115.665 327.059 114.265 328.459C112.864 329.859 112.078 331.759 112.078 333.739C112.078 335.719 112.864 337.618 114.265 339.019C115.665 340.419 117.564 341.206 119.544 341.206H258.561C267.906 341.206 275.5 348.806 275.5 358.15C275.5 367.494 267.906 375.094 258.561 375.094H70.7278ZM416.033 232.706C415.056 232.628 414.073 232.744 413.14 233.047C412.208 233.35 411.344 233.835 410.599 234.472C409.854 235.109 409.242 235.887 408.798 236.761C408.354 237.636 408.086 238.589 408.011 239.567L392.261 440.894H308.594C306.614 440.894 304.715 441.681 303.315 443.081C301.914 444.482 301.128 446.381 301.128 448.361C301.128 450.341 301.914 452.241 303.315 453.641C304.715 455.041 306.614 455.828 308.594 455.828H399.167C403.061 455.828 406.306 452.828 406.611 448.944L422.9 240.733C423.052 238.759 422.414 236.804 421.127 235.299C419.839 233.794 418.008 232.862 416.033 232.706ZM450.417 134.456L436.933 83.5167C436.072 80.2444 433.111 77.9611 429.717 77.9611H415.306L411.889 50.5444C411.665 48.738 410.789 47.0756 409.425 45.8703C408.061 44.6649 406.304 43.9998 404.483 44H277.317C275.372 44.053 273.526 44.8627 272.169 46.2567C270.813 47.6506 270.054 49.5189 270.054 51.4639C270.054 53.4089 270.813 55.2772 272.169 56.6711C273.526 58.0651 275.372 58.8747 277.317 58.9278H397.889L400.256 77.9556H220.844L223.217 58.9278H252.444C254.389 58.8747 256.236 58.0651 257.592 56.6711C258.949 55.2772 259.707 53.4089 259.707 51.4639C259.707 49.5189 258.949 47.6506 257.592 46.2567C256.236 44.8627 254.389 44.053 252.444 44H216.622C212.856 44 209.678 46.8056 209.217 50.5444L205.806 77.9611H191.389C188 77.9611 185.039 80.2444 184.172 83.5167L170.694 134.456C170.403 135.56 170.369 136.717 170.595 137.837C170.82 138.957 171.3 140.01 171.996 140.916C172.693 141.822 173.587 142.556 174.612 143.061C175.636 143.567 176.763 143.831 177.906 143.833H190.633L198.239 241.056C198.439 242.993 199.389 244.775 200.885 246.022C202.381 247.269 204.305 247.882 206.247 247.731C208.188 247.579 209.994 246.675 211.278 245.211C212.563 243.747 213.225 241.839 213.122 239.894L205.611 143.828H415.5L410.111 212.7C410.033 213.677 410.148 214.66 410.451 215.593C410.753 216.525 411.237 217.389 411.874 218.134C412.511 218.879 413.288 219.492 414.162 219.936C415.036 220.38 415.989 220.647 416.967 220.722C417.944 220.8 418.928 220.685 419.86 220.383C420.793 220.08 421.657 219.597 422.403 218.96C423.149 218.323 423.761 217.545 424.206 216.671C424.651 215.797 424.919 214.844 424.994 213.867L430.467 143.833H443.194C444.338 143.833 445.466 143.57 446.492 143.065C447.518 142.56 448.414 141.826 449.112 140.92C449.809 140.014 450.29 138.961 450.516 137.84C450.742 136.719 450.708 135.561 450.417 134.456ZM187.6 128.894L197.128 92.8889H423.978L433.506 128.894H187.6Z" fill="black"/>
</svg>
